<?xml version="1.0" encoding="UTF-8" standalone="no"?><!DOCTYPE svg PUBLIC "-//W3C//DTD SVG 1.1//EN" "http://www.w3.org/Graphics/SVG/1.1/DTD/svg11.dtd"><svg width="100%" height="100%" viewBox="0 0 1980 1130" version="1.1" xmlns="http://www.w3.org/2000/svg" xmlns:xlink="http://www.w3.org/1999/xlink" xml:space="preserve" xmlns:serif="http://www.serif.com/" style="fill-rule:evenodd;clip-rule:evenodd;stroke-linejoin:round;stroke-miterlimit:2;"><g transform="matrix(4.166667,0,0,4.166667,-2000,0)"><g id="logo" transform="matrix(1,0,-0.014939,0.855859,3.137506,73.32333)"><rect x="480.298" y="-85.424" width="470" height="315.424" style="fill:none;"/><clipPath id="_clip1"><rect x="480.298" y="-85.424" width="470" height="315.424"/></clipPath><g clip-path="url(#_clip1)"><g transform="matrix(1.067915,0,0.015057,1.007872,-33.74171,-173.889097)"><g><g transform="matrix(-0,-0.664779,-0.536968,0,1171.929475,864.274356)"><path d="M696.177,738.034L870.564,912.422L696.177,912.422L696.177,738.034Z" style="fill:url(#_Linear2);"/></g><g transform="matrix(-0.536968,-0,0,-0.664779,1149.453292,804.910058)"><path d="M696.177,738.034L870.564,912.422L696.177,912.422L696.177,738.034Z" style="fill:url(#_Linear3);"/></g><g><g transform="matrix(-0,-0.664779,-0.536968,0,1171.929475,864.274356)"><path d="M696.177,911.831L696.177,738.034L783.075,824.933L696.177,911.831Z" style="fill:url(#_Linear4);"/></g><g transform="matrix(-0.536968,-0,0,-0.664779,1149.453292,804.910058)"><path d="M696.177,780.675L696.177,738.034L717.497,759.354L696.177,780.675Z" style="fill:url(#_Linear5);"/></g></g></g><g transform="matrix(0.536968,0,0,0.664779,448.623845,-205.088282)"><path d="M696.177,738.034L870.564,912.422L696.177,912.422L696.177,738.034Z" style="fill:url(#_Linear6);"/></g><g transform="matrix(0.936404,0,0,1.15929,-298.425385,-720.644435)"><path d="M1046.998,697.933C1046.998,715.874 1032.432,730.439 1014.491,730.439C996.55,730.439 981.984,715.874 981.984,697.933L1046.998,697.933Z" style="fill:url(#_Linear7);"/></g><g transform="matrix(0,-1.15929,0.936404,0,166.484229,708.658843)"><g transform="matrix(1.049968,0,0,1.049968,-742.038551,-48.885431)"><circle cx="1131.559" cy="743.661" r="30.953" style="fill:url(#_Linear8);"/></g><g transform="matrix(1,0,0,1,-568.435482,34.009296)"><path d="M991.51,674.951C997.394,669.067 1005.52,665.426 1014.491,665.426C1032.432,665.426 1046.998,679.992 1046.998,697.933C1046.998,706.903 1043.356,715.03 1037.472,720.914L991.51,674.951Z" style="fill:url(#_Linear9);"/></g></g><g transform="matrix(0.936404,0,0,1.15929,-16.686329,-89.377149)"><g transform="matrix(1.299789,0,0,0.974842,-378.758271,-466.062984)"><path d="M696.177,738.034L826.967,912.422L696.177,912.422L696.177,738.034Z" style="fill:url(#_Linear10);"/></g><g transform="matrix(-0.688124,0,0,0.688124,1175.180112,-204.455164)"><path d="M696.177,738.034L870.564,912.422L696.177,912.422L696.177,738.034Z" style="fill:url(#_Linear11);"/></g></g></g></g></g></g><defs><linearGradient id="_Linear2" x1="0" y1="0" x2="1" y2="0" gradientUnits="userSpaceOnUse" gradientTransform="matrix(-248.162837,-100.225988,-100.225988,248.162837,993.123381,848.920324)"><stop offset="0" style="stop-color:rgb(37,177,160);stop-opacity:1"/><stop offset="1" style="stop-color:rgb(18,97,109);stop-opacity:1"/></linearGradient><linearGradient id="_Linear3" x1="0" y1="0" x2="1" y2="0" gradientUnits="userSpaceOnUse" gradientTransform="matrix(-100.225988,-248.162837,248.162837,-100.225988,807.062764,903.824108)"><stop offset="0" style="stop-color:rgb(37,177,160);stop-opacity:1"/><stop offset="1" style="stop-color:rgb(18,97,109);stop-opacity:1"/></linearGradient><linearGradient id="_Linear4" x1="0" y1="0" x2="1" y2="0" gradientUnits="userSpaceOnUse" gradientTransform="matrix(-128.179753,-28.499552,-28.499552,128.179753,848.653671,738.034273)"><stop offset="0" style="stop-color:rgb(37,177,160);stop-opacity:1"/><stop offset="1" style="stop-color:rgb(18,97,109);stop-opacity:1"/></linearGradient><linearGradient id="_Linear5" x1="0" y1="0" x2="1" y2="0" gradientUnits="userSpaceOnUse" gradientTransform="matrix(-28.499552,-128.179753,128.179753,-28.499552,696.176713,759.354398)"><stop offset="0" style="stop-color:rgb(37,177,160);stop-opacity:1"/><stop offset="1" style="stop-color:rgb(18,97,109);stop-opacity:1"/></linearGradient><linearGradient id="_Linear6" x1="0" y1="0" x2="1" y2="0" gradientUnits="userSpaceOnUse" gradientTransform="matrix(43.488384,111.097703,-111.097703,43.488384,694.295343,781.264727)"><stop offset="0" style="stop-color:rgb(37,177,160);stop-opacity:1"/><stop offset="1" style="stop-color:rgb(18,97,109);stop-opacity:1"/></linearGradient><linearGradient id="_Linear7" x1="0" y1="0" x2="1" y2="0" gradientUnits="userSpaceOnUse" gradientTransform="matrix(-16.033031,32.909862,-32.909862,-16.033031,1038.441657,692.202727)"><stop offset="0" style="stop-color:rgb(37,177,160);stop-opacity:1"/><stop offset="1" style="stop-color:rgb(18,97,109);stop-opacity:1"/></linearGradient><linearGradient id="_Linear8" x1="0" y1="0" x2="1" y2="0" gradientUnits="userSpaceOnUse" gradientTransform="matrix(12.758128,-16.202264,16.202264,12.758128,1100.60541,801.015616)"><stop offset="0" style="stop-color:rgb(37,177,160);stop-opacity:1"/><stop offset="1" style="stop-color:rgb(18,97,109);stop-opacity:1"/></linearGradient><linearGradient id="_Linear9" x1="0" y1="0" x2="1" y2="0" gradientUnits="userSpaceOnUse" gradientTransform="matrix(-32.5,0,-0,-32.5,1046.997766,697.925865)"><stop offset="0" style="stop-color:rgb(37,177,160);stop-opacity:1"/><stop offset="1" style="stop-color:rgb(18,97,109);stop-opacity:1"/></linearGradient><linearGradient id="_Linear10" x1="0" y1="0" x2="1" y2="0" gradientUnits="userSpaceOnUse" gradientTransform="matrix(45.358715,98.464291,-73.848218,60.478286,716.213231,766.23033)"><stop offset="0" style="stop-color:rgb(37,177,160);stop-opacity:1"/><stop offset="1" style="stop-color:rgb(18,97,109);stop-opacity:1"/></linearGradient><linearGradient id="_Linear11" x1="0" y1="0" x2="1" y2="0" gradientUnits="userSpaceOnUse" gradientTransform="matrix(7.664368,144.08965,144.08965,-7.664368,706.872073,755.135567)"><stop offset="0" style="stop-color:rgb(37,177,160);stop-opacity:1"/><stop offset="1" style="stop-color:rgb(18,97,109);stop-opacity:1"/></linearGradient></defs></svg>