<?xml version="1.0" encoding="UTF-8" standalone="no"?><!DOCTYPE svg PUBLIC "-//W3C//DTD SVG 1.1//EN" "http://www.w3.org/Graphics/SVG/1.1/DTD/svg11.dtd"><svg width="100%" height="100%" viewBox="0 0 1959 1130" version="1.1" xmlns="http://www.w3.org/2000/svg" xmlns:xlink="http://www.w3.org/1999/xlink" xml:space="preserve" xmlns:serif="http://www.serif.com/" style="fill-rule:evenodd;clip-rule:evenodd;stroke-linejoin:round;stroke-miterlimit:2;"><g transform="matrix(4.166667,0,0,4.166667,-2000,-6120.833333)"><g id="logo_2" transform="matrix(1,0,0,0.928892,-0.298483,123.000245)"><rect x="480.298" y="1449.987" width="470" height="290.669" style="fill:none;"/><clipPath id="_clip1"><rect x="480.298" y="1449.987" width="470" height="290.669"/></clipPath><g clip-path="url(#_clip1)"><g transform="matrix(1.067915,0,0,0.92863,-27.638797,1368.900709)"><g transform="matrix(0.936404,0,0,1.15929,-298.425385,-720.644435)"><path d="M1046.998,697.933C1046.998,715.874 1032.432,730.439 1014.491,730.439C996.55,730.439 981.984,715.874 981.984,697.933L1046.998,697.933Z" style="fill:url(#_Linear2);"/></g><g transform="matrix(0.536968,0,0,0.664779,448.623845,-205.088282)"><path d="M696.177,738.034L870.564,912.422L696.177,912.422L696.177,738.034Z" style="fill:url(#_Linear3);"/></g><g transform="matrix(0.87635,0,0,0.963159,445.318897,-327.667324)"><g transform="matrix(1.388861,0,0,1.173352,-931.906188,-313.564216)"><path d="M696.177,738.034L826.967,912.422L696.177,912.422L696.177,738.034Z" style="fill:url(#_Linear4);"/></g><g transform="matrix(-0.735279,0,0,0.828249,728.520056,0.622321)"><path d="M696.177,738.034L870.564,912.422L696.177,912.422L696.177,738.034Z" style="fill:url(#_Linear5);"/></g></g><g transform="matrix(0,-1.15929,0.936404,0,166.484229,708.658843)"><g transform="matrix(1.049968,0,0,1.049968,-742.038551,-48.885431)"><circle cx="1131.559" cy="743.661" r="30.953" style="fill:url(#_Linear6);"/></g><g transform="matrix(1,0,0,1,-568.435482,34.009296)"><path d="M991.51,674.951C997.394,669.067 1005.52,665.426 1014.491,665.426C1032.432,665.426 1046.998,679.992 1046.998,697.933C1046.998,706.903 1043.356,715.03 1037.472,720.914L991.51,674.951Z" style="fill:url(#_Linear7);"/></g></g><g><g transform="matrix(-0,-0.664779,-0.536968,0,1171.929475,864.274356)"><path d="M696.177,738.034L870.564,912.422L696.177,912.422L696.177,738.034Z" style="fill:url(#_Linear8);"/></g><g transform="matrix(-0.536968,-0,0,-0.664779,1149.453292,804.910058)"><path d="M696.177,738.034L870.564,912.422L696.177,912.422L696.177,738.034Z" style="fill:url(#_Linear9);"/></g><g><g transform="matrix(-0,-0.664779,-0.536968,0,1171.929475,864.274356)"><path d="M696.177,911.831L696.177,738.034L783.075,824.933L696.177,911.831Z" style="fill:url(#_Linear10);"/></g><g transform="matrix(-0.536968,-0,0,-0.664779,1149.453292,804.910058)"><path d="M696.177,780.675L696.177,738.034L717.497,759.354L696.177,780.675Z" style="fill:url(#_Linear11);"/></g></g></g></g></g></g></g><defs><linearGradient id="_Linear2" x1="0" y1="0" x2="1" y2="0" gradientUnits="userSpaceOnUse" gradientTransform="matrix(-47.283596,16.253394,-16.253394,-47.283596,1047.33621,697.932652)"><stop offset="0" style="stop-color:rgb(254,126,98);stop-opacity:1"/><stop offset="1" style="stop-color:rgb(101,62,172);stop-opacity:1"/></linearGradient><linearGradient id="_Linear3" x1="0" y1="0" x2="1" y2="0" gradientUnits="userSpaceOnUse" gradientTransform="matrix(150.921145,156.295197,-156.295197,150.921145,710.877608,744.827264)"><stop offset="0" style="stop-color:rgb(254,126,98);stop-opacity:1"/><stop offset="1" style="stop-color:rgb(101,62,172);stop-opacity:1"/></linearGradient><linearGradient id="_Linear4" x1="0" y1="0" x2="1" y2="0" gradientUnits="userSpaceOnUse" gradientTransform="matrix(61.548441,106.13685,-79.602638,82.064588,706.803806,759.893105)"><stop offset="0" style="stop-color:rgb(254,126,98);stop-opacity:1"/><stop offset="1" style="stop-color:rgb(101,62,172);stop-opacity:1"/></linearGradient><linearGradient id="_Linear5" x1="0" y1="0" x2="1" y2="0" gradientUnits="userSpaceOnUse" gradientTransform="matrix(-6.200483,154.456245,154.456245,6.200483,744.114468,738.034273)"><stop offset="0" style="stop-color:rgb(254,126,98);stop-opacity:1"/><stop offset="1" style="stop-color:rgb(101,62,172);stop-opacity:1"/></linearGradient><linearGradient id="_Linear6" x1="0" y1="0" x2="1" y2="0" gradientUnits="userSpaceOnUse" gradientTransform="matrix(68.26871,-112.480867,112.480867,68.26871,1012.05858,916.90146)"><stop offset="0" style="stop-color:rgb(254,126,98);stop-opacity:1"/><stop offset="1" style="stop-color:rgb(101,62,172);stop-opacity:1"/></linearGradient><linearGradient id="_Linear7" x1="0" y1="0" x2="1" y2="0" gradientUnits="userSpaceOnUse" gradientTransform="matrix(-32.5,0,-0,-32.5,1046.997766,697.925865)"><stop offset="0" style="stop-color:rgb(254,126,98);stop-opacity:1"/><stop offset="1" style="stop-color:rgb(101,62,172);stop-opacity:1"/></linearGradient><linearGradient id="_Linear8" x1="0" y1="0" x2="1" y2="0" gradientUnits="userSpaceOnUse" gradientTransform="matrix(-194.438847,-126.299743,-126.299743,194.438847,1001.720834,911.831357)"><stop offset="0" style="stop-color:rgb(254,126,98);stop-opacity:1"/><stop offset="1" style="stop-color:rgb(101,62,172);stop-opacity:1"/></linearGradient><linearGradient id="_Linear9" x1="0" y1="0" x2="1" y2="0" gradientUnits="userSpaceOnUse" gradientTransform="matrix(-126.299743,-194.438847,194.438847,-126.299743,869.973797,912.42156)"><stop offset="0" style="stop-color:rgb(254,126,98);stop-opacity:1"/><stop offset="1" style="stop-color:rgb(101,62,172);stop-opacity:1"/></linearGradient><linearGradient id="_Linear10" x1="0" y1="0" x2="1" y2="0" gradientUnits="userSpaceOnUse" gradientTransform="matrix(-137.14365,-20.621064,-20.621064,137.14365,841.80369,779.975462)"><stop offset="0" style="stop-color:rgb(254,126,98);stop-opacity:1"/><stop offset="1" style="stop-color:rgb(101,62,172);stop-opacity:1"/></linearGradient><linearGradient id="_Linear11" x1="0" y1="0" x2="1" y2="0" gradientUnits="userSpaceOnUse" gradientTransform="matrix(-20.621064,-137.14365,137.14365,-20.621064,738.117902,752.504417)"><stop offset="0" style="stop-color:rgb(254,126,98);stop-opacity:1"/><stop offset="1" style="stop-color:rgb(101,62,172);stop-opacity:1"/></linearGradient></defs></svg>