<?xml version="1.0" encoding="UTF-8" standalone="no"?><!DOCTYPE svg PUBLIC "-//W3C//DTD SVG 1.1//EN" "http://www.w3.org/Graphics/SVG/1.1/DTD/svg11.dtd"><svg width="100%" height="100%" viewBox="0 0 709 963" version="1.1" xmlns="http://www.w3.org/2000/svg" xmlns:xlink="http://www.w3.org/1999/xlink" xml:space="preserve" xmlns:serif="http://www.serif.com/" style="fill-rule:evenodd;clip-rule:evenodd;stroke-linejoin:round;stroke-miterlimit:2;"><g transform="matrix(4.166667,0,0,4.166667,-208.333333,-166.666667)"><g id="emblem" transform="matrix(0.944444,0,0,0.970558,2.718978,400.766236)"><rect x="50.062" y="-370.941" width="180" height="236.977" style="fill:none;"/><clipPath id="_clip1"><rect x="50.062" y="-370.941" width="180" height="236.977"/></clipPath><g clip-path="url(#_clip1)"><g transform="matrix(1.058824,0,0,1.030335,-506.944839,-570.150463)"><g transform="matrix(0,-1,1,0,-68.310643,671.975485)"><g transform="matrix(1.049968,0,0,1.049968,-742.038551,-48.885431)"><circle cx="1131.559" cy="743.661" r="30.953" style="fill:url(#_Linear2);"/></g><g transform="matrix(1,0,0,1,-568.435482,34.009296)"><path d="M991.51,674.951C997.394,669.067 1005.52,665.426 1014.491,665.426C1032.432,665.426 1046.998,679.992 1046.998,697.933C1046.998,706.903 1043.356,715.03 1037.472,720.914L991.51,674.951Z" style="fill:url(#_Linear3);"/></g></g><g><g transform="matrix(1.299789,0,0,0.974842,-378.758271,-466.062984)"><path d="M696.177,738.034L826.967,912.422L696.177,912.422L696.177,738.034Z" style="fill:url(#_Linear4);"/></g><g transform="matrix(-0.688124,0,0,0.688124,1175.180112,-204.455164)"><path d="M696.177,738.034L870.564,912.422L696.177,912.422L696.177,738.034Z" style="fill:url(#_Linear5);"/></g></g></g></g></g></g><defs><linearGradient id="_Linear2" x1="0" y1="0" x2="1" y2="0" gradientUnits="userSpaceOnUse" gradientTransform="matrix(12.758128,-16.202264,16.202264,12.758128,1100.60541,801.015616)"><stop offset="0" style="stop-color:rgb(37,177,160);stop-opacity:1"/><stop offset="1" style="stop-color:rgb(18,97,109);stop-opacity:1"/></linearGradient><linearGradient id="_Linear3" x1="0" y1="0" x2="1" y2="0" gradientUnits="userSpaceOnUse" gradientTransform="matrix(-32.5,0,-0,-32.5,1046.997766,697.925865)"><stop offset="0" style="stop-color:rgb(37,177,160);stop-opacity:1"/><stop offset="1" style="stop-color:rgb(18,97,109);stop-opacity:1"/></linearGradient><linearGradient id="_Linear4" x1="0" y1="0" x2="1" y2="0" gradientUnits="userSpaceOnUse" gradientTransform="matrix(45.358715,98.464291,-73.848218,60.478286,716.213231,766.23033)"><stop offset="0" style="stop-color:rgb(37,177,160);stop-opacity:1"/><stop offset="1" style="stop-color:rgb(18,97,109);stop-opacity:1"/></linearGradient><linearGradient id="_Linear5" x1="0" y1="0" x2="1" y2="0" gradientUnits="userSpaceOnUse" gradientTransform="matrix(7.664368,144.08965,144.08965,-7.664368,706.872073,755.135567)"><stop offset="0" style="stop-color:rgb(37,177,160);stop-opacity:1"/><stop offset="1" style="stop-color:rgb(18,97,109);stop-opacity:1"/></linearGradient></defs></svg>