<?xml version="1.0" encoding="UTF-8" standalone="no"?><!DOCTYPE svg PUBLIC "-//W3C//DTD SVG 1.1//EN" "http://www.w3.org/Graphics/SVG/1.1/DTD/svg11.dtd"><svg width="100%" height="100%" viewBox="0 0 709 963" version="1.1" xmlns="http://www.w3.org/2000/svg" xmlns:xlink="http://www.w3.org/1999/xlink" xml:space="preserve" xmlns:serif="http://www.serif.com/" style="fill-rule:evenodd;clip-rule:evenodd;stroke-linejoin:round;stroke-miterlimit:2;"><g transform="matrix(4.166667,0,0,4.166667,-208.333333,-6291.666667)"><g id="emblem_2" transform="matrix(1,0,0,0.831358,-0.559773,293.332195)"><rect x="50.56" y="1464.515" width="170" height="276.656" style="fill:none;"/><clipPath id="_clip1"><rect x="50.56" y="1464.515" width="170" height="276.656"/></clipPath><g clip-path="url(#_clip1)"><g transform="matrix(1,0,0,1.202852,0,-353.19913)"><g transform="matrix(0,-1,1,0,-543.875387,1989.732927)"><g transform="matrix(1.049968,0,0,1.049968,-742.038551,-48.885431)"><circle cx="1131.559" cy="743.661" r="30.953" style="fill:url(#_Linear2);"/></g><g transform="matrix(1,0,0,1,-568.435482,34.009296)"><path d="M991.51,674.951C997.394,669.067 1005.52,665.426 1014.491,665.426C1032.432,665.426 1046.998,679.992 1046.998,697.933C1046.998,706.903 1043.356,715.03 1037.472,720.914L991.51,674.951Z" style="fill:url(#_Linear3);"/></g></g><g transform="matrix(0.935867,0,0,0.830818,17.817376,1112.218732)"><g transform="matrix(1.388861,0,0,1.173352,-931.906188,-313.564216)"><path d="M696.177,738.034L826.967,912.422L696.177,912.422L696.177,738.034Z" style="fill:url(#_Linear4);"/></g><g transform="matrix(-0.735279,0,0,0.828249,728.520056,1.315745)"><path d="M696.177,738.034L870.564,912.422L696.177,912.422L696.177,738.034Z" style="fill:url(#_Linear5);"/></g></g></g></g></g></g><defs><linearGradient id="_Linear2" x1="0" y1="0" x2="1" y2="0" gradientUnits="userSpaceOnUse" gradientTransform="matrix(68.26871,-112.480867,112.480867,68.26871,1012.05858,916.90146)"><stop offset="0" style="stop-color:rgb(254,126,98);stop-opacity:1"/><stop offset="1" style="stop-color:rgb(101,62,172);stop-opacity:1"/></linearGradient><linearGradient id="_Linear3" x1="0" y1="0" x2="1" y2="0" gradientUnits="userSpaceOnUse" gradientTransform="matrix(-32.5,0,-0,-32.5,1046.997766,697.925865)"><stop offset="0" style="stop-color:rgb(254,126,98);stop-opacity:1"/><stop offset="1" style="stop-color:rgb(101,62,172);stop-opacity:1"/></linearGradient><linearGradient id="_Linear4" x1="0" y1="0" x2="1" y2="0" gradientUnits="userSpaceOnUse" gradientTransform="matrix(61.548441,106.13685,-79.602638,82.064588,706.803806,759.893105)"><stop offset="0" style="stop-color:rgb(254,126,98);stop-opacity:1"/><stop offset="1" style="stop-color:rgb(101,62,172);stop-opacity:1"/></linearGradient><linearGradient id="_Linear5" x1="0" y1="0" x2="1" y2="0" gradientUnits="userSpaceOnUse" gradientTransform="matrix(-6.200483,154.456245,154.456245,6.200483,744.114468,738.034273)"><stop offset="0" style="stop-color:rgb(254,126,98);stop-opacity:1"/><stop offset="1" style="stop-color:rgb(101,62,172);stop-opacity:1"/></linearGradient></defs></svg>